<?xml version="1.0" encoding="UTF-8"?>
<!DOCTYPE svg PUBLIC "-//W3C//DTD SVG 1.1//EN" "http://www.w3.org/Graphics/SVG/1.1/DTD/svg11.dtd">
<svg xmlns="http://www.w3.org/2000/svg" version="1.1" width="512px" height="512px" style="shape-rendering:geometricPrecision; text-rendering:geometricPrecision; image-rendering:optimizeQuality; fill-rule:evenodd; clip-rule:evenodd" xmlns:xlink="http://www.w3.org/1999/xlink">
<g><path style="opacity:0.997" fill="#682c53" d="M 392.5,49.5 C 410.294,61.7585 418.461,78.7585 417,100.5C 414.26,110.478 411.093,120.311 407.5,130C 415.359,138.192 422.859,146.692 430,155.5C 440,173.5 440,191.5 430,209.5C 423.027,218.307 415.527,226.64 407.5,234.5C 411.175,244.359 414.342,254.359 417,264.5C 417.749,293.899 404.249,313.233 376.5,322.5C 374.579,321.637 372.579,320.971 370.5,320.5C 370.5,313.833 370.5,307.167 370.5,300.5C 374.051,296.192 376.051,291.192 376.5,285.5C 375.328,277.968 373.995,270.468 372.5,263C 378.608,257.174 384.441,251.007 390,244.5C 396.631,230.195 392.798,219.695 378.5,213C 370.842,211.585 363.175,210.251 355.5,209C 351.872,202.245 348.372,195.412 345,188.5C 339.533,181.518 332.366,178.518 323.5,179.5C 294.246,160.265 262.58,154.265 228.5,161.5C 212.874,164.482 198.541,170.482 185.5,179.5C 179.016,178.865 173.349,180.532 168.5,184.5C 166.164,186.004 164.331,188.004 163,190.5C 159.961,196.745 156.794,202.912 153.5,209C 145.882,210.612 138.216,211.945 130.5,213C 116.205,219.681 112.371,230.181 119,244.5C 125.212,250.376 131.045,256.543 136.5,263C 135.167,270.332 133.834,277.665 132.5,285C 133.234,290.708 135.234,295.874 138.5,300.5C 138.5,307.167 138.5,313.833 138.5,320.5C 106.468,332.733 91.6345,356.066 94,390.5C 101.333,424.341 122.166,442.674 156.5,445.5C 164.845,445.887 172.845,444.554 180.5,441.5C 180.5,446.5 180.5,451.5 180.5,456.5C 158.039,471.166 134.039,474.999 108.5,468C 91.4691,460.97 80.9691,448.47 77,430.5C 75.704,421.873 74.8706,413.207 74.5,404.5C 61.0843,401.755 48.7509,396.589 37.5,389C 21.9397,374.316 16.4397,356.483 21,335.5C 23.4446,327.497 26.278,319.664 29.5,312C 22,305.833 15.1667,299 9,291.5C 4.69803,284.905 1.53137,277.905 -0.5,270.5C -0.5,263.5 -0.5,256.5 -0.5,249.5C 1.63604,242.953 4.46938,236.62 8,230.5C 14.8019,222.697 21.9686,215.197 29.5,208C 7.91959,159.661 22.7529,128.827 74,115.5C 75,106.833 76,98.1667 77,89.5C 82.8103,66.6904 97.3103,53.1904 120.5,49C 131.947,48.544 143.28,49.2107 154.5,51C 158.729,45.0987 162.563,38.9321 166,32.5C 182.761,10.6932 204.261,4.19324 230.5,13C 239.25,17.7899 247.75,22.9566 256,28.5C 266.285,20.107 277.785,13.9404 290.5,10C 313.355,6.39022 331.522,13.8902 345,32.5C 348.437,38.9321 352.271,45.0987 356.5,51C 365.106,50.1304 373.772,49.2971 382.5,48.5C 385.884,48.5855 389.217,48.9189 392.5,49.5 Z"/></g>
<g><path style="opacity:1" fill="#542a48" d="M 392.5,49.5 C 414.663,54.1625 428.496,67.4958 434,89.5C 435,98.1667 436,106.833 437,115.5C 488.247,128.827 503.08,159.661 481.5,208C 489.031,215.197 496.198,222.697 503,230.5C 506.919,236.453 509.752,242.786 511.5,249.5C 511.5,256.5 511.5,263.5 511.5,270.5C 509.469,277.905 506.302,284.905 502,291.5C 495.833,299 489,305.833 481.5,312C 487.08,323.738 490.413,336.071 491.5,349C 490.961,368.417 482.628,383.417 466.5,394C 456.804,398.399 446.804,401.899 436.5,404.5C 436.129,413.207 435.296,421.873 434,430.5C 427.6,457.219 410.6,471.219 383,472.5C 363.364,471.342 345.197,465.676 328.5,455.5C 328.5,450.833 328.5,446.167 328.5,441.5C 361.285,451.436 387.452,442.436 407,414.5C 422.859,382.655 417.693,354.822 391.5,331C 386.797,327.648 381.797,324.815 376.5,322.5C 404.249,313.233 417.749,293.899 417,264.5C 414.342,254.359 411.175,244.359 407.5,234.5C 415.527,226.64 423.027,218.307 430,209.5C 440,191.5 440,173.5 430,155.5C 422.859,146.692 415.359,138.192 407.5,130C 411.093,120.311 414.26,110.478 417,100.5C 418.461,78.7585 410.294,61.7585 392.5,49.5 Z"/></g>
<g><path style="opacity:1" fill="#f2aca4" d="M 323.5,179.5 C 320.784,180.634 318.118,181.967 315.5,183.5C 313.164,185.004 311.331,187.004 310,189.5C 307.726,194.387 305.226,199.054 302.5,203.5C 283.461,179.838 258.794,165.838 228.5,161.5C 262.58,154.265 294.246,160.265 323.5,179.5 Z"/></g>
<g><path style="opacity:1" fill="#f6c5b9" d="M 228.5,161.5 C 258.794,165.838 283.461,179.838 302.5,203.5C 302.152,206.207 300.819,208.207 298.5,209.5C 291.147,210.527 283.814,211.693 276.5,213C 261.994,220.195 258.494,231.029 266,245.5C 271.333,250.833 276.667,256.167 282,261.5C 282.187,265.353 281.687,269.02 280.5,272.5C 263.296,263.281 246.13,263.281 229,272.5C 227.366,269.031 226.699,265.365 227,261.5C 232.667,255.833 238.333,250.167 244,244.5C 250.27,230.311 246.437,219.811 232.5,213C 224.389,212.009 216.389,210.509 208.5,208.5C 205.527,201.221 202.027,194.221 198,187.5C 194.421,183.724 190.254,181.057 185.5,179.5C 198.541,170.482 212.874,164.482 228.5,161.5 Z"/></g>
<g><path style="opacity:1" fill="#fe6a16" d="M 185.5,179.5 C 190.254,181.057 194.421,183.724 198,187.5C 202.027,194.221 205.527,201.221 208.5,208.5C 216.389,210.509 224.389,212.009 232.5,213C 246.437,219.811 250.27,230.311 244,244.5C 238.333,250.167 232.667,255.833 227,261.5C 226.699,265.365 227.366,269.031 229,272.5C 246.13,263.281 263.296,263.281 280.5,272.5C 279.89,278.815 279.557,285.149 279.5,291.5C 270.003,282.173 258.67,279.006 245.5,282C 236.255,284.244 229.755,289.744 226,298.5C 220.617,304.796 213.784,307.462 205.5,306.5C 205.389,305.883 205.056,305.383 204.5,305C 209.033,300.264 211.366,294.597 211.5,288C 210.289,280.809 208.955,273.642 207.5,266.5C 213.152,260.348 218.985,254.348 225,248.5C 231.412,235.638 228.579,225.471 216.5,218C 207.892,216.056 199.226,214.389 190.5,213C 186.769,204.936 182.603,197.102 178,189.5C 175.174,187.171 172.008,185.504 168.5,184.5C 173.349,180.532 179.016,178.865 185.5,179.5 Z"/></g>
<g><path style="opacity:1" fill="#fd6815" d="M 323.5,179.5 C 332.366,178.518 339.533,181.518 345,188.5C 348.372,195.412 351.872,202.245 355.5,209C 363.175,210.251 370.842,211.585 378.5,213C 392.798,219.695 396.631,230.195 390,244.5C 384.441,251.007 378.608,257.174 372.5,263C 373.995,270.468 375.328,277.968 376.5,285.5C 376.051,291.192 374.051,296.192 370.5,300.5C 365.116,305.294 358.782,307.294 351.5,306.5C 351.389,305.883 351.056,305.383 350.5,305C 354.754,300.493 357.088,295.16 357.5,289C 356.306,281.477 354.973,273.977 353.5,266.5C 359.152,260.348 364.985,254.348 371,248.5C 378.2,232.759 373.7,221.926 357.5,216C 350.345,215.565 343.345,214.399 336.5,212.5C 332.922,205.009 329.088,197.676 325,190.5C 321.91,187.889 318.744,185.555 315.5,183.5C 318.118,181.967 320.784,180.634 323.5,179.5 Z"/></g>
<g><path style="opacity:1" fill="#fd8415" d="M 168.5,184.5 C 172.008,185.504 175.174,187.171 178,189.5C 182.603,197.102 186.769,204.936 190.5,213C 199.226,214.389 207.892,216.056 216.5,218C 228.579,225.471 231.412,235.638 225,248.5C 218.985,254.348 213.152,260.348 207.5,266.5C 208.955,273.642 210.289,280.809 211.5,288C 211.366,294.597 209.033,300.264 204.5,305C 205.056,305.383 205.389,305.883 205.5,306.5C 197.243,303.038 189.243,299.038 181.5,294.5C 174.112,298.861 166.446,302.694 158.5,306C 150.857,307.505 144.19,305.672 138.5,300.5C 135.234,295.874 133.234,290.708 132.5,285C 133.834,277.665 135.167,270.332 136.5,263C 131.045,256.543 125.212,250.376 119,244.5C 112.371,230.181 116.205,219.681 130.5,213C 138.216,211.945 145.882,210.612 153.5,209C 156.794,202.912 159.961,196.745 163,190.5C 164.331,188.004 166.164,186.004 168.5,184.5 Z"/></g>
<g><path style="opacity:1" fill="#fd8415" d="M 315.5,183.5 C 318.744,185.555 321.91,187.889 325,190.5C 329.088,197.676 332.922,205.009 336.5,212.5C 343.345,214.399 350.345,215.565 357.5,216C 373.7,221.926 378.2,232.759 371,248.5C 364.985,254.348 359.152,260.348 353.5,266.5C 354.973,273.977 356.306,281.477 357.5,289C 357.088,295.16 354.754,300.493 350.5,305C 351.056,305.383 351.389,305.883 351.5,306.5C 343.243,303.038 335.243,299.038 327.5,294.5C 326.099,295.521 324.765,296.521 323.5,297.5C 318.068,299.715 312.735,302.215 307.5,305C 294.179,308.622 284.846,304.122 279.5,291.5C 279.557,285.149 279.89,278.815 280.5,272.5C 281.687,269.02 282.187,265.353 282,261.5C 276.667,256.167 271.333,250.833 266,245.5C 258.494,231.029 261.994,220.195 276.5,213C 283.814,211.693 291.147,210.527 298.5,209.5C 300.819,208.207 302.152,206.207 302.5,203.5C 305.226,199.054 307.726,194.387 310,189.5C 311.331,187.004 313.164,185.004 315.5,183.5 Z"/></g>
<g><path style="opacity:1" fill="#0e5180" d="M 197.5,230.5 C 192.9,236.275 188.066,241.941 183,247.5C 182.451,255.241 182.951,262.908 184.5,270.5C 175.021,271.567 166.354,274.9 158.5,280.5C 158.167,279.667 157.833,278.833 157.5,278C 158.502,272.327 159.502,266.661 160.5,261C 160.344,256.864 159.177,253.031 157,249.5C 152.167,244.667 147.333,239.833 142.5,235C 150.667,233.978 158.667,232.312 166.5,230C 169,228.167 171.167,226 173,223.5C 175.579,218.008 178.412,212.675 181.5,207.5C 185,213.833 188.5,220.167 192,226.5C 193.774,227.965 195.608,229.298 197.5,230.5 Z"/></g>
<g><path style="opacity:1" fill="#0d5180" d="M 343.5,230.5 C 338.9,236.275 334.066,241.941 329,247.5C 328.904,255.193 329.404,262.86 330.5,270.5C 321.021,271.567 312.354,274.9 304.5,280.5C 304.167,279.833 303.833,279.167 303.5,278.5C 305.822,270.755 306.488,262.922 305.5,255C 304.804,253.107 303.97,251.274 303,249.5C 298.318,244.985 293.818,240.319 289.5,235.5C 295.407,233.885 301.407,232.719 307.5,232C 310.446,231.194 313.112,229.861 315.5,228C 319.878,221.413 323.878,214.58 327.5,207.5C 331,213.833 334.5,220.167 338,226.5C 339.992,227.665 341.825,228.998 343.5,230.5 Z"/></g>
<g><path style="opacity:1" fill="#0c4769" d="M 197.5,230.5 C 204.648,232.745 211.981,234.411 219.5,235.5C 215.182,240.319 210.682,244.985 206,249.5C 202.734,254.738 201.734,260.405 203,266.5C 204.508,271.172 205.008,275.839 204.5,280.5C 198.02,276.593 191.353,273.26 184.5,270.5C 182.951,262.908 182.451,255.241 183,247.5C 188.066,241.941 192.9,236.275 197.5,230.5 Z"/></g>
<g><path style="opacity:1" fill="#08476a" d="M 343.5,230.5 C 350.66,232.745 357.993,234.411 365.5,235.5C 361.182,240.319 356.682,244.985 352,249.5C 350.725,251.717 349.725,254.051 349,256.5C 348.683,264.106 349.517,271.606 351.5,279C 351.333,279.5 351.167,280 351,280.5C 344.275,276.719 337.441,273.386 330.5,270.5C 329.404,262.86 328.904,255.193 329,247.5C 334.066,241.941 338.9,236.275 343.5,230.5 Z"/></g>
<g><path style="opacity:0.999" fill="#f6c5b9" d="M 279.5,291.5 C 284.846,304.122 294.179,308.622 307.5,305C 312.735,302.215 318.068,299.715 323.5,297.5C 326.982,322.944 322.816,346.944 311,369.5C 297.309,390.506 278.143,403.673 253.5,409C 264.828,409.5 276.162,409.667 287.5,409.5C 287.667,424.504 287.5,439.504 287,454.5C 281.486,482.519 264.653,498.186 236.5,501.5C 205.907,501.217 187.24,486.217 180.5,456.5C 180.5,451.5 180.5,446.5 180.5,441.5C 180.5,436.167 180.5,430.833 180.5,425.5C 180.832,416.143 180.498,406.81 179.5,397.5C 156.904,383.325 143.571,362.992 139.5,336.5C 138.806,331.195 138.472,325.862 138.5,320.5C 138.5,313.833 138.5,307.167 138.5,300.5C 144.19,305.672 150.857,307.505 158.5,306C 166.446,302.694 174.112,298.861 181.5,294.5C 189.243,299.038 197.243,303.038 205.5,306.5C 213.784,307.462 220.617,304.796 226,298.5C 229.755,289.744 236.255,284.244 245.5,282C 258.67,279.006 270.003,282.173 279.5,291.5 Z"/></g>
<g><path style="opacity:1" fill="#f3ada5" d="M 351.5,306.5 C 358.782,307.294 365.116,305.294 370.5,300.5C 370.5,307.167 370.5,313.833 370.5,320.5C 370.608,325.87 370.275,331.203 369.5,336.5C 369.167,339.167 368.833,341.833 368.5,344.5C 363.625,362.898 353.958,378.398 339.5,391C 335.403,393.37 331.736,396.203 328.5,399.5C 328.5,407.833 328.5,416.167 328.5,424.5C 328.5,430.167 328.5,435.833 328.5,441.5C 328.5,446.167 328.5,450.833 328.5,455.5C 325.607,475.901 314.607,490.067 295.5,498C 291.277,499.472 286.943,500.472 282.5,501C 267.17,501.5 251.837,501.667 236.5,501.5C 264.653,498.186 281.486,482.519 287,454.5C 287.5,439.504 287.667,424.504 287.5,409.5C 276.162,409.667 264.828,409.5 253.5,409C 278.143,403.673 297.309,390.506 311,369.5C 322.816,346.944 326.982,322.944 323.5,297.5C 324.765,296.521 326.099,295.521 327.5,294.5C 335.243,299.038 343.243,303.038 351.5,306.5 Z"/></g>
<g><path style="opacity:1" fill="#ee4b84" d="M 262.5,323.5 C 268.653,329.786 273.319,337.119 276.5,345.5C 279.446,346.655 282.446,346.821 285.5,346C 289.937,345.483 293.937,344.317 297.5,342.5C 293.093,362.378 280.427,373.544 259.5,376C 254.78,376.717 250.114,376.55 245.5,375.5C 252.516,372.824 259.182,369.324 265.5,365C 270.531,360.447 274.198,354.947 276.5,348.5C 275.833,348.167 275.167,347.833 274.5,347.5C 263.891,349.207 253.225,349.707 242.5,349C 232.818,347.415 223.152,345.748 213.5,344C 212.584,343.722 211.918,343.222 211.5,342.5C 215.138,332.359 221.804,324.859 231.5,320C 240.735,319.282 248.402,322.449 254.5,329.5C 256.921,327.066 259.588,325.066 262.5,323.5 Z"/></g>
<g><path style="opacity:1" fill="#d93a84" d="M 297.5,342.5 C 293.937,344.317 289.937,345.483 285.5,346C 282.446,346.821 279.446,346.655 276.5,345.5C 273.319,337.119 268.653,329.786 262.5,323.5C 269.257,318.457 276.257,318.291 283.5,323C 289.574,328.561 294.24,335.061 297.5,342.5 Z"/></g>
<g><path style="opacity:1" fill="#eb4983" d="M 138.5,320.5 C 138.472,325.862 138.806,331.195 139.5,336.5C 111.901,350.381 103.067,372.047 113,401.5C 128.484,428.811 150.984,436.811 180.5,425.5C 180.5,430.833 180.5,436.167 180.5,441.5C 172.845,444.554 164.845,445.887 156.5,445.5C 122.166,442.674 101.333,424.341 94,390.5C 91.6345,356.066 106.468,332.733 138.5,320.5 Z"/></g>
<g><path style="opacity:1" fill="#eb4983" d="M 370.5,320.5 C 372.579,320.971 374.579,321.637 376.5,322.5C 381.797,324.815 386.797,327.648 391.5,331C 417.693,354.822 422.859,382.655 407,414.5C 387.452,442.436 361.285,451.436 328.5,441.5C 328.5,435.833 328.5,430.167 328.5,424.5C 351.172,434.666 371.339,430.999 389,413.5C 405.679,389.356 404.179,366.523 384.5,345C 380.095,341.13 375.095,338.297 369.5,336.5C 370.275,331.203 370.608,325.87 370.5,320.5 Z"/></g>
<g><path style="opacity:1" fill="#552a48" d="M 369.5,336.5 C 375.095,338.297 380.095,341.13 384.5,345C 404.179,366.523 405.679,389.356 389,413.5C 371.339,430.999 351.172,434.666 328.5,424.5C 328.5,416.167 328.5,407.833 328.5,399.5C 355.245,391.036 368.579,372.703 368.5,344.5C 368.833,341.833 369.167,339.167 369.5,336.5 Z"/></g>
<g><path style="opacity:1" fill="#692c54" d="M 139.5,336.5 C 143.571,362.992 156.904,383.325 179.5,397.5C 180.498,406.81 180.832,416.143 180.5,425.5C 150.984,436.811 128.484,428.811 113,401.5C 103.067,372.047 111.901,350.381 139.5,336.5 Z"/></g>
<g><path style="opacity:1" fill="#fe738b" d="M 211.5,342.5 C 211.918,343.222 212.584,343.722 213.5,344C 223.152,345.748 232.818,347.415 242.5,349C 253.225,349.707 263.891,349.207 274.5,347.5C 275.167,347.833 275.833,348.167 276.5,348.5C 274.198,354.947 270.531,360.447 265.5,365C 259.182,369.324 252.516,372.824 245.5,375.5C 226.648,371.642 215.314,360.642 211.5,342.5 Z"/></g>
<g><path style="opacity:1" fill="#6a2e55" d="M 368.5,344.5 C 368.579,372.703 355.245,391.036 328.5,399.5C 331.736,396.203 335.403,393.37 339.5,391C 353.958,378.398 363.625,362.898 368.5,344.5 Z"/></g>
</svg>
